<svg width="158" height="315" viewBox="0 0 158 315" fill="none" xmlns="http://www.w3.org/2000/svg">
<path d="M43.3918 314.272C45.3414 304.661 49.7033 294.979 47.701 285.085C46.3339 282.864 41.811 282.665 41.7086 279.609C42.2238 273.448 42.2092 267.24 42.1887 261.043C42.5429 252.801 41.9515 244.205 41.7407 236.205C39.6037 233.709 40.1395 230.338 40.927 227.405C41.8959 224.635 41.249 221.664 42.177 218.926C43.5119 214.787 43.1576 210.33 44.0563 206.171C45.6547 201.714 47.5165 197.415 47.8854 192.716C49.3666 189.461 46.8812 186.47 47.4784 183.025C47.0598 179.208 50.0428 176.021 49.5276 172.241C47.7273 174.754 40.482 181.817 41.2256 184.164C42.4317 185.582 44.3579 186.674 43.8105 188.834C43.3626 191.107 43.5792 195.302 40.6225 195.617C38.8895 195.296 37.6658 197.424 38.6377 198.827C39.1587 199.805 38.266 200.523 37.6219 201.139C36.1904 202.724 37.2179 205.208 36.8988 207.16C36.8988 209.028 36.3309 210.926 36.9398 212.753C37.4375 217.251 39.0242 221.532 32.6688 221.742C20.567 223.724 30.5083 210.87 26.2021 210.605C22.2326 210.581 23.7051 206.866 23.4973 204.326C22.9703 202.085 20.8274 200.672 20.725 198.299C20.725 197.368 20.1219 196.548 19.3345 196.031C16.5534 192.987 20.9914 193.267 20.0635 187.033C20.1366 184.435 25.4703 185.48 23.7314 182.719C6.75841 165.735 -10.3199 137.134 7.67765 115.039C12.3937 108.831 17.5839 106.283 25.2683 104.982C27.376 104.246 31.1641 105.198 31.8228 102.401C32.7332 90.4871 38.951 83.2983 49.7033 78.71C58.3362 72.7062 69.1264 69.265 78.1809 65.6837C78.901 62.3535 78.582 60.1381 77.7565 57.9082C76.711 55.0855 75.863 52.1939 75.2185 49.2542C74.5803 46.3354 72.7154 46.0436 71.8811 41.5721C71.4976 38.9452 69.3549 35.0312 72.0598 33.1778C71.1816 25.3585 69.9316 17.1073 75.5902 10.5868C77.4784 6.14161 81.9133 2.36187 86.5649 1.48041C89.4689 0.93169 91.8811 0.581417 94.3899 0.651467C98.254 0.762378 103.172 1.03384 105.924 3.99636C108.596 5.83224 111.855 7.8082 112.68 11.2027C115.16 17.2211 115.037 23.3359 113.959 29.5907C113.008 31.0296 115.18 31.3011 115.048 32.67C115.634 38.3819 114.091 43.9859 110.303 48.0984C109.718 50.4334 109.99 53.1945 108.866 55.3135C108.771 55.5028 108.651 55.6785 108.509 55.8359C107.923 56.4605 108.046 57.485 107.472 58.1213C107.208 58.3891 107.001 58.7079 106.863 59.0582C106.413 60.357 106.784 61.977 106.462 63.3225C106.439 64.1631 106.462 64.6592 107.619 64.7147C110.979 64.7906 112.967 67.8553 116.029 68.8214C120.212 70.4442 124.557 71.6496 128.576 73.6811C152.133 82.6766 148.116 90.9599 152.525 112.643C153.746 120.465 155.821 128.142 157.721 135.762C159.006 139.849 155.561 139.101 152.905 140.648C150.918 144.641 152.97 150.572 153.813 154.95C155.569 160.688 155.309 166.724 155.786 172.635C155.42 188.939 152.212 205.149 151.667 221.378C149.879 227.583 151.939 234.31 150.54 240.565C148.933 244.474 147.949 248.852 145.239 252.056C143.634 254.82 138.04 252.912 136.79 256.236C136.617 264.277 136.717 272.485 134.366 280.132C134.366 281.664 135.203 283.579 133.588 284.551C125.098 291.988 131.696 305.189 133.88 314.284C105.859 312.705 113.936 321.245 105.561 299.5C103.023 294.538 102.894 288.357 100.567 283.672C90.757 277.441 91.3015 277.216 85.2359 286.883C81.3278 291.313 74.469 288.374 73.459 290.931C70.6897 298.727 66.0234 305.653 67.452 314.281L43.3918 314.272ZM135.116 226.436C146.667 218.336 136.287 188.714 136.029 176.026C135.426 169.147 135.83 162.098 134.928 155.245C133.918 151.643 131.319 136.037 130.795 148.687C129.984 155.09 128.277 161.307 129.363 167.796C130.019 178.99 131.363 190.135 133.389 201.165C134.542 209.466 133.555 218.17 135.11 226.436H135.116ZM136.638 245.098C136.682 247.127 139.533 245.431 139.551 244.281C139.273 243.113 139.873 241.867 139.624 240.778C139.167 240.416 138.412 239.027 137.829 239.78C137.27 241.496 137.007 243.332 136.632 245.098H136.638Z" fill="#021060"/>
</svg>
